<?xml version="1.0" encoding="utf-8"?>
<!-- Generator: Adobe Illustrator 21.0.2, SVG Export Plug-In . SVG Version: 6.00 Build 0)  -->
<svg version="1.1" id="Layer_1" xmlns="http://www.w3.org/2000/svg" xmlns:xlink="http://www.w3.org/1999/xlink" x="0px" y="0px"
	 viewBox="0 0 508.5 391.9" style="enable-background:new 0 0 508.5 391.9;" xml:space="preserve">
<style type="text/css">
	.st0{fill:none;stroke:#282828;stroke-width:8;stroke-linecap:round;stroke-linejoin:round;}
	.st1{fill:none;stroke:#282828;stroke-width:8;stroke-linecap:round;stroke-linejoin:round;stroke-dasharray:12.2997,18.9226;}
	.st2{fill:none;stroke:#282828;stroke-width:8;stroke-linecap:round;stroke-linejoin:round;stroke-dasharray:12.1279,18.6583;}
	.st3{fill:none;stroke:#282828;stroke-width:8;stroke-linecap:round;stroke-linejoin:round;stroke-dasharray:12.227,18.8108;}
	.st4{fill:none;stroke:#282828;stroke-width:8;stroke-linecap:round;stroke-linejoin:round;stroke-dasharray:12.128,18.6584;}
	.st5{enable-background:new    ;}
	.st6{fill:#EC942A;}
	.st7{fill:#759DE2;}
	.st8{fill:#F3A84D;}
	.st9{opacity:0.55;}
	.st10{fill:#3D79DB;}
	.st11{fill:none;}
</style>
<g>
	<g>
		<g>
			<g>
				<path class="st0" d="M415.9,146.3c0,2.2-0.1,4.4-0.3,6.5"/>
				<path class="st1" d="M411.9,171.3c-8.9,27-31.9,47.7-60.1,53.4"/>
				<path class="st0" d="M342.4,226c-2.1,0.2-4.3,0.3-6.5,0.3l0,0"/>
			</g>
		</g>
		<g>
			<g>
				<path class="st0" d="M8.9,306L8.9,306c0,2.2,0.1,4.4,0.3,6.5"/>
				<path class="st2" d="M12.8,330.7c10.5,32,40.7,55.2,76.1,55.2h44.2"/>
				<line class="st0" x1="142.4" y1="386" x2="148.9" y2="386"/>
			</g>
		</g>
		<g>
			<g>
				<line class="st0" x1="148.9" y1="226" x2="155.4" y2="226"/>
				<line class="st3" x1="174.2" y1="226" x2="320" y2="226.3"/>
				<line class="st0" x1="329.4" y1="226.3" x2="335.9" y2="226.3"/>
			</g>
		</g>
		<g>
			<g>
				<path class="st0" d="M8.9,306c0-2.2,0.1-4.4,0.3-6.5"/>
				<path class="st4" d="M12.8,281.2c10.5-32,40.7-55.2,76.1-55.2l44.2,0.1"/>
				<line class="st0" x1="142.4" y1="226" x2="148.9" y2="226"/>
			</g>
		</g>
	</g>
	<g>
		<g class="st5">
			<path class="st6" d="M105.7,84.5c1.3,0,3.4,0.1,3.4,1.7c0,2.1-5,4.4-7.1,4.4H55.8v35.3h45.5c1,0,3.1,0.4,3.1,2
				c0,2.7-5.7,4.3-7.9,4.3H55.8v43.4c0,2.6-5.2,4.3-7.5,4.3c-1.4,0-2.7-0.3-2.7-2v-89c0-1.8,3.8-4.3,6.8-4.3H105.7z"/>
			<path class="st6" d="M126.4,84.5c1.4,0,2.6,0.4,2.6,1.7v89.4c0,2.1-4.4,4.1-7.2,4.1c-1.6,0-2.7-0.6-2.7-1.7V88.8
				C119,86.4,123.2,84.5,126.4,84.5z"/>
			<path class="st6" d="M189.3,121.5c1-2.3,4.7-3.7,7.2-3.7c1.4,0,2.6,0.9,2.6,1.8c0,0.4-0.1,0.7-0.3,1.1l-30.5,71.4
				c-3.8,8.8-11.9,16.7-22.3,16.7c-3.1,0-6.4-1.1-7.9-2.4c-0.4-0.3-0.9-0.7-0.9-1.1c0-1.8,4-4.3,7.1-4.3c2.1,0,2.4,1.4,6,1.4
				c5,0,9.1-10.6,11.5-16.7L140,122.5v-0.4c0-2.1,4.5-4.3,7.2-4.3c1.3,0,2.4,0.4,2.7,1.4l18.1,52L189.3,121.5z"/>
		</g>
	</g>
	<g>
		<g>
			<g>
				<path class="st7" d="M410.8,73.8l-33,39.3l-41.7-25.5c-15.7-9.6-29.5-22.1-40.7-36.8l0,0c-2-2.6-2.6-5.9-1.9-9.1l5.6-22.1
					c0.8-3.2,3-5.8,6-7.1l20.8-9.4c3-1.3,6.4-1.3,9.3,0.2l0,0c16.5,8.4,31.2,19.9,43.4,33.8L410.8,73.8z"/>
			</g>
		</g>
		<g>
			<g>
				<path class="st7" d="M429.3,119.8l-39.3-33L415.5,45c9.6-15.7,22.1-29.5,36.8-40.7l0,0c2.6-2,5.9-2.6,9.1-1.9L483.5,8
					c3.2,0.8,5.8,3,7.1,6l9.4,20.8c1.3,3,1.3,6.4-0.2,9.3l0,0c-8.4,16.5-19.9,31.2-33.8,43.4L429.3,119.8z"/>
			</g>
		</g>
		<circle class="st8" cx="407.3" cy="117.5" r="63.4"/>
		<g class="st9">
			<circle cx="404.5" cy="100.8" r="6.9"/>
			<circle cx="447.3" cy="100.8" r="6.9"/>
			<path d="M434.6,114.7h-17.4c-1.6,0-2.9-1.3-2.9-2.9l0,0c0-1.6,1.3-2.9,2.9-2.9h17.4c1.6,0,2.9,1.3,2.9,2.9l0,0
				C437.5,113.3,436.2,114.7,434.6,114.7z"/>
		</g>
	</g>
	<g>
		<g class="st5">
			<path class="st10" d="M125.5,304.6c1.4,0,3.3,0.1,3.3,2c0,24.4-18.9,44.8-44.4,44.8c-23.8,0-42.1-21.7-42.1-47.3
				c0-24.2,17.3-50.6,46.4-50.6c11.1,0,20.3,4.7,26.4,10.8c7.4,7.2,11.6,15.9,11.6,17.6c0,2.3-5,4.5-7.4,4.5c-1.3,0-2.3-0.6-2.7-1.4
				c-5.2-12.8-16.4-25.1-32.2-25.1c-20.6,0-31.9,22.7-31.9,41.3c0,20.4,13.5,44.1,36.4,44.1c18.3,0,29.1-16.9,29.8-34.3H80.3
				c-1.4,0-3.4-0.3-3.4-1.7c0-2.3,4.7-4.5,6.8-4.5H125.5z"/>
			<path class="st10" d="M199.6,345.9c0,2.3-4.4,4.3-7.4,4.3c-1.6,0-2.7-0.6-2.7-2v-2.6c-7.1,3.8-15,6-24.2,6
				c-4.4,0-12.8-0.9-17.9-4.3c-4.1-2.7-8.8-8.6-8.8-15.5c0-11.1,6.9-17.2,16.2-20.6c6.4-2.4,12.8-2.6,17.4-2.6
				c6.7,0,13.6,2.1,17.3,3c0-10.5-6.7-19-21.3-19c-5.2,0-9.4,0.4-15.5,3c-1.7,0.7-3.5,1.8-5.2,1.8c-0.9,0-2.7-0.1-2.7-1.8
				c0-1,0.9-1.8,1.8-2.6c6.5-4.7,14.9-6.4,22.4-6.4c15.3,0,30.5,5.1,30.5,27.1V345.9z M189.6,318.1c-4.4-3-10.8-4.3-16.3-4.3
				c-9.5,0-24.4,2.7-24.4,15.5c0,10.3,11.1,15.9,21.4,15.9c7.7,0,16.9-2.1,19.3-9.5V318.1z"/>
			<path class="st10" d="M292.2,286.8c10.8,0,20,6.1,20,20.1v38.8c0,2.3-4,4.4-7.5,4.4c-1.6,0-2.6-0.6-2.6-2V311
				c0-8.9-4.3-17.7-14.7-17.7c-7.5,0-13.3,5.2-17.2,11.9c0,0,0.3,4.7,0.3,16.7v23.8c0,2.3-4.4,4.4-7.4,4.4c-1.7,0-2.8-0.6-2.8-2
				v-34.9c0-10.9-2.8-20.1-14.7-20.1c-7.2,0-13.3,5.2-17.2,11.6v41c0,2.3-4.5,4.4-7.5,4.4c-1.6,0-2.7-0.6-2.7-2v-55.7
				c0-2.1,4.3-4.3,7.4-4.3c1.6,0,2.8,0.4,2.8,1.8v4.8c3.7-3.8,13-8.1,22.1-8.1c7.1,0,14.2,2.8,17.6,10.1
				C274.2,290.6,282.3,286.8,292.2,286.8z"/>
			<path class="st10" d="M392.4,312.6c0,1.3,0,2.6-0.3,3.7c-0.6,2.7-4.3,4.3-6.7,4.3h-46.4c0,12,9.4,24.7,22.5,24.7
				c6.8,0,14.9-3,18.9-6.9c1.6-1.6,3.3-1.8,5.2-1.8c1.3,0,2.6,0.7,2.6,2.3c0,1-0.9,2.1-1.6,2.7c-6.4,6-18.3,10.1-28.6,10.1
				c-17.4,0-29.3-11.8-29.3-30.3c0-19.3,14.5-34,34.3-34C379.8,287.1,392.4,301.1,392.4,312.6z M382.5,314.4
				c-0.9-11.9-10.6-21.1-23.7-21.1c-10.3,0-18,9.5-19.7,21.1H382.5z"/>
			<path class="st10" d="M460.9,298.1c0,1.7-4.7,4-8.1,4c-1.3,0-2.4-0.3-3-1c-4.1-5.4-10.5-8.6-17.2-8.6c-7.4,0-14.9,3.7-14.9,11.5
				c0,12.6,15.9,10.2,26.6,11.5c9.8,1.1,19.8,6.5,19.8,16c0,12-13.9,20.1-28.5,20.1c-10.6,0-17.6-0.6-24.7-4.8
				c-5.7-3.3-6.4-5.8-6.4-6.8c0-2,4.7-4.3,8.1-4.3c1.1,0,2.1,0.3,2.8,1c4.5,6.1,12.2,9.2,20.1,9.2c8.6,0,17.7-3.5,17.7-11.6
				c0-10.2-14-14.2-22.8-14.2c-9.6,0-24-1.7-24-13.9c0-12.8,14.2-19.4,29.9-19.4c8.4,0,17.7,2.7,23.8,10.3
				C460.8,297.4,460.9,297.7,460.9,298.1z"/>
		</g>
	</g>
</g>
<g>
	<path class="st11" d="M152.9,388"/>
</g>
</svg>
